<svg xmlns="http://www.w3.org/2000/svg" version="1.1" xmlns:xlink="http://www.w3.org/1999/xlink" xmlns:svgjs="http://svgjs.dev/svgjs" width="48" height="47" viewBox="0 0 1500 708">
   <g transform="matrix(1,0,0,1,-0.9090909090909918,-0.25662747131741526)">
      <svg viewBox="0 0 396 187" data-background-color="#ffffff" preserveAspectRatio="xMidYMid meet" height="708" width="1500" xmlns="http://www.w3.org/2000/svg" xmlns:xlink="http://www.w3.org/1999/xlink">
         <g id="tight-bounds" transform="matrix(1,0,0,1,0.2400000000000091,0.06778154962762528)">
            <svg viewBox="0 0 395.52 186.86443690074475" height="186.86443690074475" width="395.52">
               <g>
                  <svg viewBox="0 0 395.52 186.86443690074475" height="186.86443690074475" width="395.52">
                     <g>
                        <svg viewBox="0 0 395.52 186.86443690074475" height="186.86443690074475" width="395.52">
                           <g id="textblocktransform">
                              <svg viewBox="0 0 395.52 186.86443690074475" height="186.86443690074475" width="395.52" id="textblock">
                                 <g>
                                    <rect width="395.52" height="133.52498794854435" fill="none" stroke-width="9.018103199999999" stroke="#e11d47" data-fill-palette-color="none" data-stroke-palette-color="tertiary"></rect>
                                    <rect width="395.52" height="53.339448952200414" y="133.52498794854435" fill="#e11d47" data-fill-palette-color="tertiary"></rect>
                                 </g>
                                 <g>
                                    <svg viewBox="0 0 395.52 133.52498794854435" height="133.52498794854435" width="395.52">
                                       <g transform="matrix(1,0,0,1,23.607599999999998,23.607599999999998)">
                                          <svg width="348.3048" viewBox="2.15 -35.85 147.69 36.6" height="86.30978794854435" data-palette-color="#e11d47">
                                             <path d="M12.05-4.5L12.05-4.5Q18.05-4.5 18.05-9.3L18.05-9.3Q18.05-11.8 15.4-13L15.4-13Q14-13.7 11.78-14.3 9.55-14.9 8.08-15.53 6.6-16.15 5.1-17.25L5.1-17.25Q2.15-19.45 2.15-24.03 2.15-28.6 5.33-31.23 8.5-33.85 13.63-33.85 18.75-33.85 23.15-31.8L23.15-31.8 23.15-24.3 18.05-23.95 18.05-26.85Q18.05-27.6 17.85-27.95L17.85-27.95Q17.3-28.9 14.33-28.9 11.35-28.9 9.93-27.85 8.5-26.8 8.5-24.6L8.5-24.6Q8.5-23 9.7-21.8L9.7-21.8Q10.5-21 12.08-20.48 13.65-19.95 15.43-19.4 17.2-18.85 18.57-18.2 19.95-17.55 21.45-16.4L21.45-16.4Q24.5-14.15 24.5-9.45 24.5-4.75 21.13-2.05 17.75 0.65 12.23 0.65 6.7 0.65 2.3-1.4L2.3-1.4 2.3-9.3 7.4-9.65 7.4-6.6Q7.4-5.85 7.6-5.5 7.8-5.15 8.83-4.83 9.85-4.5 12.05-4.5ZM39.25-3.65L39.25-3.65Q44.7-3.65 44.7-12.45L44.7-12.45Q44.7-16.9 43.47-19.2 42.25-21.5 39.37-21.5 36.5-21.5 35.15-19.3 33.8-17.1 33.8-13.3L33.8-13.3Q33.8-6.25 36.4-4.45L36.4-4.45Q37.55-3.65 39.25-3.65ZM27.75-12.6L27.75-12.6Q27.75-16.3 28.85-19.03 29.95-21.75 31.8-23.2L31.8-23.2Q35.35-25.9 39.65-25.9L39.65-25.9Q42.65-25.9 44.72-24.93 46.8-23.95 47.97-22.68 49.15-21.4 49.97-18.98 50.8-16.55 50.8-13.25L50.8-13.25Q50.8-6.35 47.45-2.8 44.1 0.75 38.87 0.75 33.65 0.75 30.7-2.63 27.75-6 27.75-12.6ZM57.2-5.6L57.2-5.6 57.2-29.95Q57.2-30.75 56.92-31.05 56.65-31.35 55.95-31.4L55.95-31.4 54.2-31.5 54.2-35.65 63.1-35.65 63.1-22.2Q65.7-25.9 70.4-25.9L70.4-25.9Q74.2-25.9 76.27-23.73 78.34-21.55 78.34-17.2L78.34-17.2 78.34-4.15 81.2-4 81.2 0 69.3 0 69.3-3.8 70.95-3.95Q71.7-4.05 72.05-4.38 72.4-4.7 72.4-5.6L72.4-5.6 72.4-15.9Q72.4-18.5 71.57-19.9 70.75-21.3 68.37-21.3 66-21.3 64.57-19.83 63.15-18.35 63.15-16.25L63.15-16.25 63.15-4.15 66-4 66 0 54.1 0 54.1-3.8 55.75-3.95Q56.5-4.05 56.85-4.38 57.2-4.7 57.2-5.6ZM106.59-24.15L106.59-24.15 106.59-5.55Q106.59-4.75 106.87-4.45 107.14-4.15 107.84-4.1L107.84-4.1 109.44-4 109.44 0 101.49 0 101.49-2.9 101.34-2.95Q98.84 0.65 94.49 0.65L94.49 0.65Q89.39 0.65 86.94-2.6 84.49-5.85 84.49-11.5L84.49-11.5Q84.49-18.3 87.79-22.1 91.09-25.9 97.69-25.9L97.69-25.9Q101.94-25.9 106.59-24.15ZM100.79-7.95L100.79-7.95 100.79-20.9Q99.39-21.55 96.94-21.55L96.94-21.55Q93.59-21.55 92.09-18.85 90.59-16.15 90.59-11.7L90.59-11.7Q90.59-3.6 95.79-3.6L95.79-3.6Q97.99-3.6 99.39-4.93 100.79-6.25 100.79-7.95ZM112.59-25.15L121.54-25.15 121.54-4.15 124.39-4 124.39 0 112.49 0 112.49-3.8 114.14-3.95Q115.59-4.1 115.59-5.55L115.59-5.55 115.59-19.45Q115.59-20.3 115.31-20.6 115.04-20.9 114.34-20.9L114.34-20.9 112.59-21 112.59-25.15ZM115.24-29.48Q114.19-30.5 114.19-32.1 114.19-33.7 115.24-34.77 116.29-35.85 117.99-35.85 119.69-35.85 120.77-34.77 121.84-33.7 121.84-32.1 121.84-30.5 120.77-29.48 119.69-28.45 117.99-28.45 116.29-28.45 115.24-29.48ZM127.29-35.65L136.24-35.65 136.24-4.15 139.09-4 139.09 0 127.19 0 127.19-3.8 128.84-3.95Q130.29-4.1 130.29-5.55L130.29-5.55 130.29-30.2Q130.29-31.3 129.04-31.4L129.04-31.4 127.29-31.5 127.29-35.65ZM146.19 0.75Q144.44 0.75 143.48-0.23 142.53-1.2 142.53-2.78 142.53-4.35 143.51-5.38 144.48-6.4 146.16-6.4 147.84-6.4 148.84-5.43 149.84-4.45 149.84-2.88 149.84-1.3 148.88-0.28 147.94 0.75 146.19 0.75Z" opacity="1" transform="matrix(1,0,0,1,0,0)" fill="#e11d47" class="wordmark-text-0" data-fill-palette-color="primary" id="text-0"></path>
                                          </svg>
                                       </g>
                                    </svg>
                                 </g>
                              </svg>
                           </g>
                        </svg>
                     </g>
                  </svg>
               </g>
               <defs></defs>
            </svg>
            <rect width="395.52" height="186.86443690074475" fill="none" stroke="none" visibility="hidden"></rect>
         </g>
      </svg>
   </g>
</svg>